<svg xmlns="http://www.w3.org/2000/svg" viewBox="0 0 14.69 9.21"><defs><style>.cls-1{fill:#030404;}</style></defs><g id="Capa_2" data-name="Capa 2"><g id="Capa_1-2" data-name="Capa 1"><path class="cls-1" d="M4.11,7.5a2.47,2.47,0,0,0,.56-.06,1.33,1.33,0,0,0,.47-.19,1,1,0,0,0,.32-.36,1.26,1.26,0,0,0,.12-.59,1.17,1.17,0,0,0-.39-1,1.67,1.67,0,0,0-1-.3H2V7.5ZM4,3.65a1.43,1.43,0,0,0,.88-.25,1,1,0,0,0,.34-.82,1.11,1.11,0,0,0-.11-.52.87.87,0,0,0-.31-.32,1.43,1.43,0,0,0-.44-.16,2.78,2.78,0,0,0-.51,0H2V3.65ZM4.26,0A6.15,6.15,0,0,1,5.44.11a2.68,2.68,0,0,1,.91.38,1.73,1.73,0,0,1,.59.69,2.38,2.38,0,0,1,.21,1.06,2,2,0,0,1-.31,1.14,2.3,2.3,0,0,1-.92.74A2.2,2.2,0,0,1,7.16,5a2.57,2.57,0,0,1,.41,1.45A2.46,2.46,0,0,1,7.3,7.6a2.25,2.25,0,0,1-.71.82,3.12,3.12,0,0,1-1,.46A4.25,4.25,0,0,1,4.38,9H0V0Z"/><path class="cls-1" d="M12.47,4a1.35,1.35,0,0,0-1-.36,1.5,1.5,0,0,0-.71.14,1.54,1.54,0,0,0-.46.36,1.36,1.36,0,0,0-.24.46,2,2,0,0,0-.08.43h2.92a1.77,1.77,0,0,0-.41-1ZM10.4,7.47a1.62,1.62,0,0,0,1.17.39,1.59,1.59,0,0,0,.93-.27A1.15,1.15,0,0,0,13,7h1.59A3,3,0,0,1,13.4,8.7a3.41,3.41,0,0,1-1.9.51A3.86,3.86,0,0,1,10.11,9a3,3,0,0,1-1.06-.71,3.21,3.21,0,0,1-.66-1.09,3.86,3.86,0,0,1-.24-1.39A3.83,3.83,0,0,1,8.39,4.4a3.36,3.36,0,0,1,.69-1.1,3.45,3.45,0,0,1,1.06-.73,3.51,3.51,0,0,1,1.36-.26A2.92,2.92,0,0,1,14,3.5a3.35,3.35,0,0,1,.57,1.24,4.68,4.68,0,0,1,.13,1.46H10a1.86,1.86,0,0,0,.44,1.27Z"/><rect class="cls-1" x="9.59" y="0.61" width="3.66" height="0.89"/></g></g></svg>