<svg xmlns="http://www.w3.org/2000/svg" viewBox="0 0 9.49 9.07"><g id="Capa_2" data-name="Capa 2"><g id="Capa_1-2" data-name="Capa 1"><path d="M9.49,9.07h-2V9c0-1,0-2.06,0-3.09a3.81,3.81,0,0,0-.07-.67.88.88,0,0,0-.73-.75,1.05,1.05,0,0,0-1.08.39,1.14,1.14,0,0,0-.25.72V9.07h-2V3h2v.87l.11-.12a2.35,2.35,0,0,1,1.31-.84A2.14,2.14,0,0,1,9.27,4.23a3.44,3.44,0,0,1,.22,1.19V9.07Z"/><path d="M.13,9.06V3h2V9.06Z"/><path d="M0,1.06A1,1,0,0,1,.89,0a1.3,1.3,0,0,1,1,.18,1,1,0,0,1,.42,1.06,1,1,0,0,1-.78.81A1.27,1.27,0,0,1,.65,2,1,1,0,0,1,0,1.06Z"/></g></g></svg>